# xmcd CD database file
#
# Track frame offsets:
#	150
#	16334
#	33441
#	53386
#	73115
#	96594
#	117068
#	140135
#	161457
#	183972
#	208487
#	228887
#	246964
#
# Disc length: 3540 seconds
#
# Revision: 0
# Processed by: cddbd v1.5PL3 Copyright (c) Steve Scherf et al.
# Submitted via: CDex 1.50beta8
#
DISCID=b40dd20d
DTITLE=スピッツ - RECYCLE Greatest Hits of SPITZ
DYEAR=1900
DGENRE=Rock
TTITLE0=君が思い出になる前に
TTITLE1=空も飛べるはず
TTITLE2=青い車
TTITLE3=スパイダー
TTITLE4=ロビンソン
TTITLE5=涙がキラリ☆
TTITLE6=チェリー
TTITLE7=渚
TTITLE8=スカーレット
TTITLE9=夢じゃない
TTITLE10=運命の人
TTITLE11=冷たい頬
TTITLE12=楓
EXTD=
EXTT0=
EXTT1=
EXTT2=
EXTT3=
EXTT4=
EXTT5=
EXTT6=
EXTT7=
EXTT8=
EXTT9=
EXTT10=
EXTT11=
EXTT12=
PLAYORDER=
